<mxfile host="app.diagrams.net" modified="2023-06-13T17:37:20.089Z" agent="Mozilla/5.0 (Windows NT 10.0; Win64; x64) AppleWebKit/537.36 (KHTML, like Gecko) Chrome/114.0.0.0 Safari/537.36" etag="U0hPVAZTIx3PvHmbJuJi" version="21.3.8" type="github">
  <diagram id="C5RBs43oDa-KdzZeNtuy" name="Page-1">
    <mxGraphModel dx="1221" dy="1143" grid="0" gridSize="10" guides="1" tooltips="1" connect="1" arrows="1" fold="1" page="0" pageScale="1" pageWidth="827" pageHeight="1169" math="0" shadow="0">
      <root>
        <mxCell id="WIyWlLk6GJQsqaUBKTNV-0" />
        <mxCell id="WIyWlLk6GJQsqaUBKTNV-1" parent="WIyWlLk6GJQsqaUBKTNV-0" />
        <mxCell id="LLGk0WHuYbxwM5TaNnjS-4" value="" style="edgeStyle=orthogonalEdgeStyle;rounded=0;orthogonalLoop=1;jettySize=auto;html=1;" edge="1" parent="WIyWlLk6GJQsqaUBKTNV-1" source="LLGk0WHuYbxwM5TaNnjS-0" target="LLGk0WHuYbxwM5TaNnjS-2">
          <mxGeometry relative="1" as="geometry" />
        </mxCell>
        <mxCell id="LLGk0WHuYbxwM5TaNnjS-0" value="开始" style="rounded=1;whiteSpace=wrap;html=1;" vertex="1" parent="WIyWlLk6GJQsqaUBKTNV-1">
          <mxGeometry x="195" y="-10" width="50" height="30" as="geometry" />
        </mxCell>
        <mxCell id="LLGk0WHuYbxwM5TaNnjS-6" value="" style="edgeStyle=orthogonalEdgeStyle;rounded=0;orthogonalLoop=1;jettySize=auto;html=1;" edge="1" parent="WIyWlLk6GJQsqaUBKTNV-1" source="LLGk0WHuYbxwM5TaNnjS-2" target="LLGk0WHuYbxwM5TaNnjS-5">
          <mxGeometry relative="1" as="geometry" />
        </mxCell>
        <mxCell id="LLGk0WHuYbxwM5TaNnjS-2" value="输入n个对象，&lt;br&gt;m个评价指标" style="shape=parallelogram;perimeter=parallelogramPerimeter;whiteSpace=wrap;html=1;fixedSize=1;" vertex="1" parent="WIyWlLk6GJQsqaUBKTNV-1">
          <mxGeometry x="160" y="40" width="120" height="40" as="geometry" />
        </mxCell>
        <mxCell id="LLGk0WHuYbxwM5TaNnjS-8" value="" style="edgeStyle=orthogonalEdgeStyle;rounded=0;orthogonalLoop=1;jettySize=auto;html=1;" edge="1" parent="WIyWlLk6GJQsqaUBKTNV-1" source="LLGk0WHuYbxwM5TaNnjS-5" target="LLGk0WHuYbxwM5TaNnjS-7">
          <mxGeometry relative="1" as="geometry" />
        </mxCell>
        <mxCell id="LLGk0WHuYbxwM5TaNnjS-17" style="edgeStyle=orthogonalEdgeStyle;rounded=0;orthogonalLoop=1;jettySize=auto;html=1;entryX=1;entryY=0.5;entryDx=0;entryDy=0;exitX=1;exitY=0.5;exitDx=0;exitDy=0;" edge="1" parent="WIyWlLk6GJQsqaUBKTNV-1" source="LLGk0WHuYbxwM5TaNnjS-5" target="LLGk0WHuYbxwM5TaNnjS-16">
          <mxGeometry relative="1" as="geometry">
            <mxPoint x="460" y="360" as="targetPoint" />
            <Array as="points">
              <mxPoint x="440" y="130" />
              <mxPoint x="440" y="365" />
            </Array>
          </mxGeometry>
        </mxCell>
        <mxCell id="LLGk0WHuYbxwM5TaNnjS-5" value="判断评价指标&lt;br&gt;是否需要正向化" style="rhombus;whiteSpace=wrap;html=1;" vertex="1" parent="WIyWlLk6GJQsqaUBKTNV-1">
          <mxGeometry x="145" y="100" width="150" height="60" as="geometry" />
        </mxCell>
        <mxCell id="LLGk0WHuYbxwM5TaNnjS-13" value="" style="edgeStyle=orthogonalEdgeStyle;rounded=0;orthogonalLoop=1;jettySize=auto;html=1;" edge="1" parent="WIyWlLk6GJQsqaUBKTNV-1" source="LLGk0WHuYbxwM5TaNnjS-7" target="LLGk0WHuYbxwM5TaNnjS-11">
          <mxGeometry relative="1" as="geometry" />
        </mxCell>
        <mxCell id="LLGk0WHuYbxwM5TaNnjS-14" style="edgeStyle=orthogonalEdgeStyle;rounded=0;orthogonalLoop=1;jettySize=auto;html=1;entryX=0.5;entryY=0;entryDx=0;entryDy=0;" edge="1" parent="WIyWlLk6GJQsqaUBKTNV-1" source="LLGk0WHuYbxwM5TaNnjS-7" target="LLGk0WHuYbxwM5TaNnjS-10">
          <mxGeometry relative="1" as="geometry" />
        </mxCell>
        <mxCell id="LLGk0WHuYbxwM5TaNnjS-15" style="edgeStyle=orthogonalEdgeStyle;rounded=0;orthogonalLoop=1;jettySize=auto;html=1;entryX=0.5;entryY=0;entryDx=0;entryDy=0;" edge="1" parent="WIyWlLk6GJQsqaUBKTNV-1" source="LLGk0WHuYbxwM5TaNnjS-7" target="LLGk0WHuYbxwM5TaNnjS-12">
          <mxGeometry relative="1" as="geometry" />
        </mxCell>
        <mxCell id="LLGk0WHuYbxwM5TaNnjS-7" value="进行正向化模块" style="rounded=0;whiteSpace=wrap;html=1;" vertex="1" parent="WIyWlLk6GJQsqaUBKTNV-1">
          <mxGeometry x="160" y="190" width="120" height="50" as="geometry" />
        </mxCell>
        <mxCell id="LLGk0WHuYbxwM5TaNnjS-9" value="yes" style="text;html=1;strokeColor=none;fillColor=none;align=center;verticalAlign=middle;whiteSpace=wrap;rounded=0;" vertex="1" parent="WIyWlLk6GJQsqaUBKTNV-1">
          <mxGeometry x="220" y="160" width="30" height="20" as="geometry" />
        </mxCell>
        <mxCell id="LLGk0WHuYbxwM5TaNnjS-23" style="edgeStyle=orthogonalEdgeStyle;rounded=0;orthogonalLoop=1;jettySize=auto;html=1;entryX=0.5;entryY=0;entryDx=0;entryDy=0;" edge="1" parent="WIyWlLk6GJQsqaUBKTNV-1" source="LLGk0WHuYbxwM5TaNnjS-10" target="LLGk0WHuYbxwM5TaNnjS-16">
          <mxGeometry relative="1" as="geometry">
            <Array as="points">
              <mxPoint x="85" y="320" />
              <mxPoint x="220" y="320" />
            </Array>
          </mxGeometry>
        </mxCell>
        <mxCell id="LLGk0WHuYbxwM5TaNnjS-10" value="极小型指标转化为极大型指标" style="rounded=0;whiteSpace=wrap;html=1;" vertex="1" parent="WIyWlLk6GJQsqaUBKTNV-1">
          <mxGeometry x="40" y="260" width="90" height="50" as="geometry" />
        </mxCell>
        <mxCell id="LLGk0WHuYbxwM5TaNnjS-20" value="" style="edgeStyle=orthogonalEdgeStyle;rounded=0;orthogonalLoop=1;jettySize=auto;html=1;" edge="1" parent="WIyWlLk6GJQsqaUBKTNV-1" source="LLGk0WHuYbxwM5TaNnjS-11" target="LLGk0WHuYbxwM5TaNnjS-16">
          <mxGeometry relative="1" as="geometry" />
        </mxCell>
        <mxCell id="LLGk0WHuYbxwM5TaNnjS-11" value="区间型指标转化为极大型指标" style="rounded=0;whiteSpace=wrap;html=1;" vertex="1" parent="WIyWlLk6GJQsqaUBKTNV-1">
          <mxGeometry x="175" y="260" width="90" height="50" as="geometry" />
        </mxCell>
        <mxCell id="LLGk0WHuYbxwM5TaNnjS-21" style="edgeStyle=orthogonalEdgeStyle;rounded=0;orthogonalLoop=1;jettySize=auto;html=1;entryX=0.5;entryY=0;entryDx=0;entryDy=0;" edge="1" parent="WIyWlLk6GJQsqaUBKTNV-1" source="LLGk0WHuYbxwM5TaNnjS-12" target="LLGk0WHuYbxwM5TaNnjS-16">
          <mxGeometry relative="1" as="geometry">
            <Array as="points">
              <mxPoint x="355" y="320" />
              <mxPoint x="220" y="320" />
            </Array>
          </mxGeometry>
        </mxCell>
        <mxCell id="LLGk0WHuYbxwM5TaNnjS-12" value="中间型指标转化为极大型指标" style="rounded=0;whiteSpace=wrap;html=1;" vertex="1" parent="WIyWlLk6GJQsqaUBKTNV-1">
          <mxGeometry x="310" y="260" width="90" height="50" as="geometry" />
        </mxCell>
        <mxCell id="LLGk0WHuYbxwM5TaNnjS-27" style="edgeStyle=orthogonalEdgeStyle;rounded=0;orthogonalLoop=1;jettySize=auto;html=1;entryX=0.5;entryY=0;entryDx=0;entryDy=0;" edge="1" parent="WIyWlLk6GJQsqaUBKTNV-1" source="LLGk0WHuYbxwM5TaNnjS-16" target="LLGk0WHuYbxwM5TaNnjS-24">
          <mxGeometry relative="1" as="geometry" />
        </mxCell>
        <mxCell id="LLGk0WHuYbxwM5TaNnjS-16" value="计算评价对象与最大值和最小值的距离" style="rounded=0;whiteSpace=wrap;html=1;" vertex="1" parent="WIyWlLk6GJQsqaUBKTNV-1">
          <mxGeometry x="160" y="340" width="120" height="50" as="geometry" />
        </mxCell>
        <mxCell id="LLGk0WHuYbxwM5TaNnjS-18" value="no" style="text;html=1;strokeColor=none;fillColor=none;align=center;verticalAlign=middle;whiteSpace=wrap;rounded=0;" vertex="1" parent="WIyWlLk6GJQsqaUBKTNV-1">
          <mxGeometry x="440" y="240" width="30" height="20" as="geometry" />
        </mxCell>
        <mxCell id="LLGk0WHuYbxwM5TaNnjS-28" style="edgeStyle=orthogonalEdgeStyle;rounded=0;orthogonalLoop=1;jettySize=auto;html=1;entryX=0.5;entryY=0;entryDx=0;entryDy=0;" edge="1" parent="WIyWlLk6GJQsqaUBKTNV-1" source="LLGk0WHuYbxwM5TaNnjS-24" target="LLGk0WHuYbxwM5TaNnjS-25">
          <mxGeometry relative="1" as="geometry" />
        </mxCell>
        <mxCell id="LLGk0WHuYbxwM5TaNnjS-24" value="计算此评价对象得分" style="rounded=0;whiteSpace=wrap;html=1;" vertex="1" parent="WIyWlLk6GJQsqaUBKTNV-1">
          <mxGeometry x="160" y="410" width="120" height="50" as="geometry" />
        </mxCell>
        <mxCell id="LLGk0WHuYbxwM5TaNnjS-31" value="" style="edgeStyle=orthogonalEdgeStyle;rounded=0;orthogonalLoop=1;jettySize=auto;html=1;" edge="1" parent="WIyWlLk6GJQsqaUBKTNV-1" source="LLGk0WHuYbxwM5TaNnjS-25" target="LLGk0WHuYbxwM5TaNnjS-30">
          <mxGeometry relative="1" as="geometry" />
        </mxCell>
        <mxCell id="LLGk0WHuYbxwM5TaNnjS-25" value="对得分进行排序" style="rounded=0;whiteSpace=wrap;html=1;" vertex="1" parent="WIyWlLk6GJQsqaUBKTNV-1">
          <mxGeometry x="160" y="480" width="120" height="50" as="geometry" />
        </mxCell>
        <mxCell id="LLGk0WHuYbxwM5TaNnjS-30" value="结束" style="rounded=1;whiteSpace=wrap;html=1;" vertex="1" parent="WIyWlLk6GJQsqaUBKTNV-1">
          <mxGeometry x="195" y="554.5" width="50" height="30" as="geometry" />
        </mxCell>
      </root>
    </mxGraphModel>
  </diagram>
</mxfile>
